<svg xmlns="http://www.w3.org/2000/svg" viewBox="0 0 64 64" id="split-bill"><path d="M52.377 42.563c-.691 0-1.364-.21-1.938-.612a3.265 3.265 0 0 1-.793-4.599 3.351 3.351 0 0 1 2.179-1.341 3.378 3.378 0 0 1 2.504.564 3.267 3.267 0 0 1 1.367 2.138 3.23 3.23 0 0 1-.575 2.46 3.347 3.347 0 0 1-2.176 1.342c-.19.031-.38.048-.568.048zm.01-4.614a1.344 1.344 0 0 0-1.093.552 1.302 1.302 0 0 0 .316 1.834c.289.201.641.277.997.224.353-.06.66-.25.868-.536.207-.285.288-.632.229-.98a1.311 1.311 0 0 0-.545-.852h-.001a1.343 1.343 0 0 0-.77-.242z"></path><path d="M53.743 38.375c-.183 0-.369-.048-.536-.15L37.87 28.79a.983.983 0 0 1-.32-1.369 1.024 1.024 0 0 1 1.393-.314l15.338 9.435c.472.29.616.903.32 1.368-.193.3-.521.465-.858.465zm.89-4.548c-.725 0-1.427-.231-2.016-.667a3.26 3.26 0 0 1-1.302-2.175c-.257-1.802 1.027-3.473 2.86-3.725a3.39 3.39 0 0 1 2.489.634 3.268 3.268 0 0 1 1.303 2.177 3.233 3.233 0 0 1-.647 2.445 3.34 3.34 0 0 1-2.216 1.278 3.493 3.493 0 0 1-.47.033zm.01-4.615c-.062 0-.125.006-.188.014-.73.1-1.24.765-1.14 1.484.05.347.235.655.519.867.285.209.638.296.991.251h.002c.353-.048.666-.228.882-.507a1.305 1.305 0 0 0-.261-1.843 1.356 1.356 0 0 0-.805-.266z"></path><path d="M36.925 35.234c-.52 0-.963-.394-1.006-.913a.997.997 0 0 1 .926-1.068l18.04-1.43c.571-.031 1.042.362 1.088.909a.997.997 0 0 1-.927 1.067l-18.039 1.43c-.027.003-.055.005-.082.005zM7.01 29.718c-.153 0-.307-.035-.449-.103a.991.991 0 0 1-.561-.89V11.493a1 1 0 0 1 1.01-.992h25.427a1 1 0 0 1 1.01.992v17.036c0 .364-.203.7-.529.872a1.022 1.022 0 0 1-1.033-.04l-3.233-2.072-2.556 2.186c-.363.314-.898.33-1.281.037l-2.46-1.865-2.158 1.746a1.023 1.023 0 0 1-1.284 0l-2.167-1.754-2.564 1.882a1.023 1.023 0 0 1-1.236-.02l-2.584-2.03-2.74 2.046c-.18.134-.395.202-.612.202zm3.368-4.498c.224 0 .447.071.631.217l2.59 2.035 2.573-1.89a1.022 1.022 0 0 1 1.247.03l2.136 1.728 2.136-1.729a1.025 1.025 0 0 1 1.26-.02l2.443 1.852 2.507-2.144c.34-.289.84-.325 1.215-.083l2.31 1.48V12.485H8.022v14.24l1.745-1.304c.182-.134.397-.201.612-.201z"></path><path d="M23.512 19.43H10.714a1 1 0 0 1-1.01-.992 1 1 0 0 1 1.01-.992h12.798a1 1 0 0 1 1.01.992 1 1 0 0 1-1.01.993zm5.22 4.301H10.379a1 1 0 0 1-1.01-.992 1 1 0 0 1 1.01-.992h18.355a1 1 0 0 1 1.01.992 1 1 0 0 1-1.01.992zM32.438 53.5H7.01A1 1 0 0 1 6 52.508V35.274a1 1 0 0 1 .984-.992l3.872-.099c.251.012.5.082.691.244l2.474 2.117 2.435-2.055a1.02 1.02 0 0 1 1.343.022l2.121 1.92 2.098-1.748c.363-.3.893-.314 1.268-.029l2.58 1.948 2.583-1.977c.166-.128.369-.2.58-.21l3.367-.133c.269.006.542.09.74.277.199.186.311.446.311.715v17.234a1 1 0 0 1-1.01.992zM8.02 51.515h23.406V36.307l-1.993.08-2.944 2.252c-.364.277-.872.279-1.236.004l-2.552-1.927-2.156 1.795a1.022 1.022 0 0 1-1.338-.025l-2.118-1.917-2.416 2.039c-.381.322-.943.32-1.322-.004l-2.836-2.426-2.495.063v15.274z"></path><path d="M21.24 43.843H10.713a1 1 0 0 1-1.01-.993 1 1 0 0 1 1.01-.992H21.24c.559 0 1.01.444 1.01.992s-.451.993-1.01.993zm7.83 4.298H10.713a1 1 0 0 1-1.01-.992 1 1 0 0 1 1.01-.992H29.07a1 1 0 0 1 1.01.992 1 1 0 0 1-1.01.992zm-.337-4.298H24.59a1 1 0 0 1-1.01-.993 1 1 0 0 1 1.01-.992h4.143c.558 0 1.01.444 1.01.992s-.452.993-1.01.993z"></path></svg>